<svg width="246" height="190" viewBox="0 0 246 190" fill="none" xmlns="http://www.w3.org/2000/svg">
<g clip-path="url(#clip0_12_1074)">
<path d="M179.498 46.0326C179.498 64.1674 156.229 117.648 142.887 146.822C141.982 148.801 140.659 150.45 139.056 151.598C137.452 152.746 135.626 153.351 133.766 153.351C131.906 153.351 130.08 152.746 128.477 151.598C126.873 150.45 125.55 148.801 124.646 146.822C111.304 117.648 88.0341 64.1674 88.0341 46.0326C88.0341 20.6095 108.509 1.52588e-05 133.766 1.52588e-05C159.023 1.52588e-05 179.498 20.6095 179.498 46.0326Z" fill="#2F80ED"/>
<path d="M133.981 75.8492C147.736 75.8492 158.887 62.2656 158.887 45.5095C158.887 28.7534 147.736 15.1698 133.981 15.1698C120.226 15.1698 109.075 28.7534 109.075 45.5095C109.075 62.2656 120.226 75.8492 133.981 75.8492Z" fill="white"/>
<path d="M30.0508 72.9613C38.2895 72.9613 44.9683 64.8253 44.9683 54.7891C44.9683 44.7528 38.2895 36.6169 30.0508 36.6169C21.8121 36.6169 15.1333 44.7528 15.1333 54.7891C15.1333 64.8253 21.8121 72.9613 30.0508 72.9613Z" fill="#2F80ED"/>
<path d="M133.766 189.02C153.709 189.02 169.876 187.5 169.876 185.624C169.876 183.749 153.709 182.229 133.766 182.229C113.823 182.229 97.6561 183.749 97.6561 185.624C97.6561 187.5 113.823 189.02 133.766 189.02Z" fill="#2F80ED"/>
<path opacity="0.4" d="M27.0134 70.9494C27.7726 65.25 24.5954 59.88 19.9168 58.9551C15.2382 58.0303 10.83 61.9008 10.0708 67.6001C9.31152 73.2995 12.4888 78.6695 17.1674 79.5944C21.846 80.5193 26.2542 76.6488 27.0134 70.9494Z" fill="#2F80ED"/>
<path d="M219.329 123.205C151.745 92.3424 69.3153 122.431 21.7239 183.979C21.4534 184.324 21.1828 184.674 20.9209 185.025H20.1952C20.4442 184.674 20.7019 184.324 20.9552 183.979C69.5343 117.749 150.869 91.3538 219.329 123.205Z" fill="#3F3D56"/>
<path d="M237.798 133.442C231.824 129.561 225.656 126.142 219.329 123.205C225.673 126.094 231.844 129.514 237.798 133.442Z" fill="#3F3D56"/>
<path opacity="0.4" d="M200.809 102.65C206.008 102.65 210.222 97.5165 210.222 91.1838C210.222 84.8511 206.008 79.7174 200.809 79.7174C195.611 79.7174 191.396 84.8511 191.396 91.1838C191.396 97.5165 195.611 102.65 200.809 102.65Z" fill="#2F80ED"/>
<path d="M201.857 179.381C202.585 182.657 205.076 184.685 205.076 184.685C205.076 184.685 206.388 181.403 205.661 178.128C204.933 174.852 202.442 172.824 202.442 172.824C202.442 172.824 201.13 176.106 201.857 179.381Z" fill="#3F3D56"/>
<path d="M202.926 178.677C204.922 181.044 205.166 184.683 205.166 184.683C205.166 184.683 202.174 184.484 200.178 182.117C198.182 179.75 197.938 176.111 197.938 176.111C197.938 176.111 200.93 176.31 202.926 178.677Z" fill="#2F80ED"/>
<path d="M1.44282 133.837V138.891L1.23669 139.163V133.785C1.3054 133.801 1.37412 133.822 1.44282 133.837Z" fill="#3F3D56"/>
<path d="M14.66 183.976C14.5999 184.097 14.5355 184.217 14.4711 184.337H1.23669V134.089L1.44282 133.837L3.1991 136.27V132.713H8.78142V144.001L14.4196 151.801L14.4711 151.874C14.5398 152.135 14.6042 152.397 14.6686 152.658C14.6691 152.662 14.6706 152.666 14.6729 152.669C15.5185 155.965 16.2123 159.317 16.7513 162.707C17.9794 170.705 17.7947 178.039 14.66 183.976Z" fill="#CCCCCC"/>
<path d="M5.88357 161.613H2.33044V165.22H5.88357V161.613Z" fill="#3F3D56"/>
<path d="M5.88357 168.105H2.33044V171.712H5.88357V168.105Z" fill="#3F3D56"/>
<path d="M115.334 154.759L113.558 151.153L130.139 133.839C142.397 126.651 157.174 128.725 172.777 133.839V138.889L157.38 159.088L139.614 163.416L115.334 154.759Z" fill="#3F3D56"/>
<path d="M180.116 143.999C183.061 140.009 183.47 136.216 180.116 132.712H174.534V136.272L172.777 133.839L158.564 151.153L156.195 154.038L153.234 168.466L158.564 184.336H185.804V151.874L180.116 143.999Z" fill="#CCCCCC"/>
<path d="M113.558 151.152H158.564V184.336H113.558C108.113 177.16 110.941 164.081 113.558 151.152Z" fill="#F2F2F2"/>
<path d="M152.346 161.613H142.871V171.712H152.346V161.613Z" fill="#3F3D56"/>
<path d="M139.022 161.252H130.731V184.336H139.022V161.252Z" fill="#CCCCCC"/>
<path d="M121.256 164.859V161.252H117.703V164.859H120.96H121.256Z" fill="#3F3D56"/>
<path d="M120.96 167.744H117.703V171.352H121.256V167.744H120.96Z" fill="#3F3D56"/>
<path d="M127.178 161.252H123.625V164.859H127.178V161.252Z" fill="#3F3D56"/>
<path d="M127.178 167.744H123.625V171.351H127.178V167.744Z" fill="#3F3D56"/>
<path d="M171.296 165.22V161.613H167.743V165.22H171H171.296Z" fill="#3F3D56"/>
<path d="M171 168.105H167.743V171.712H171.296V168.105H171Z" fill="#3F3D56"/>
<path d="M177.218 161.613H173.665V165.22H177.218V161.613Z" fill="#3F3D56"/>
<path d="M177.218 168.105H173.665V171.712H177.218V168.105Z" fill="#3F3D56"/>
<path d="M35.197 94.1628L32.2362 91.2769L48.8174 73.2421H90.8626V89.1129L63.6222 111.476L35.197 94.1628Z" fill="#3F3D56"/>
<path d="M98.5283 83.3586V73.6023H92.946V75.9918L90.8625 73.2419L77.2421 91.2767L71.9127 95.6054L63.6487 169.155L76.1114 184.336H105.075C109.513 157.142 113.032 129.205 105.075 91.9981L98.5283 83.3586Z" fill="#CCCCCC"/>
<path d="M32.2359 91.2769H77.2422V184.336H32.2359C27.311 148.184 24.9057 114.657 32.2359 91.2769Z" fill="#F2F2F2"/>
<path d="M57.9961 161.613H49.7054V184.336H57.9961V161.613Z" fill="#CCCCCC"/>
<path d="M40.8226 168.105V164.499H37.2697V168.105H40.5267H40.8226Z" fill="#3F3D56"/>
<path d="M40.5267 170.991H37.2697V174.598H40.8226V170.991H40.5267Z" fill="#3F3D56"/>
<path d="M46.7445 164.498H43.1914V168.105H46.7445V164.498Z" fill="#3F3D56"/>
<path d="M64.8064 170.991H61.5493V174.598H65.1022V170.991H64.8064Z" fill="#3F3D56"/>
<path d="M71.0242 164.498H67.4711V168.105H71.0242V164.498Z" fill="#3F3D56"/>
<path d="M71.0242 170.991H67.4711V174.598H71.0242V170.991Z" fill="#3F3D56"/>
<path d="M89.9741 95.966V92.3592H86.4211V95.966H89.6782H89.9741Z" fill="#3F3D56"/>
<path d="M89.6782 98.8519H86.4211V102.459H89.9741V98.8519H89.6782Z" fill="#3F3D56"/>
<path d="M95.8961 92.359H92.343V95.966H95.8961V92.359Z" fill="#3F3D56"/>
<path d="M95.8961 98.8515H92.343V102.459H95.8961V98.8515Z" fill="#3F3D56"/>
<path d="M89.9741 116.165V112.558H86.4211V116.165H89.6782H89.9741Z" fill="#3F3D56"/>
<path d="M89.6782 119.051H86.4211V122.658H89.9741V119.051H89.6782Z" fill="#3F3D56"/>
<path d="M95.8961 112.558H92.343V116.165H95.8961V112.558Z" fill="#3F3D56"/>
<path d="M95.8961 119.051H92.343V122.657H95.8961V119.051Z" fill="#3F3D56"/>
<path d="M89.9741 136.364V132.757H86.4211V136.364H89.6782H89.9741Z" fill="#3F3D56"/>
<path d="M89.6782 139.25H86.4211V142.856H89.9741V139.25H89.6782Z" fill="#3F3D56"/>
<path d="M95.8961 132.757H92.343V136.364H95.8961V132.757Z" fill="#3F3D56"/>
<path d="M95.8961 139.249H92.343V142.856H95.8961V139.249Z" fill="#3F3D56"/>
<path d="M89.9741 156.563V152.956H86.4211V156.563H89.6782H89.9741Z" fill="#3F3D56"/>
<path d="M89.6782 159.449H86.4211V163.055H89.9741V159.449H89.6782Z" fill="#3F3D56"/>
<path d="M95.8961 152.956H92.343V156.563H95.8961V152.956Z" fill="#3F3D56"/>
<path d="M95.8961 159.448H92.343V163.055H95.8961V159.448Z" fill="#3F3D56"/>
<path d="M37.2695 95.966H71.6164V104.623C60.6072 100.921 49.1267 101.187 37.2695 104.623V95.966Z" fill="#3F3D56"/>
<path d="M37.2695 113.279C47.9896 117.127 59.4385 117.127 71.6164 113.279V121.936H37.2695V113.279Z" fill="#3F3D56"/>
<path d="M37.2695 130.593H71.6164V139.25C59.9111 134.696 48.4501 134.482 37.2695 139.25V130.593Z" fill="#3F3D56"/>
<path d="M37.2695 147.906C48.4711 153.165 59.9304 152.946 71.6164 147.906V156.563H37.2695V147.906Z" fill="#3F3D56"/>
<path d="M221.867 132.867H246V147.032L243.844 147.854L236.673 150.58L225.423 147.405L214.185 144.233L208.251 142.558L205.288 141.223C207.752 137.103 212.235 133.863 221.867 132.867Z" fill="#3F3D56"/>
<path d="M246 141.223V184.337H205.288C205.275 184.311 205.266 184.286 205.253 184.26V184.257C205.244 184.227 205.232 184.198 205.219 184.17C204.583 182.612 204.014 181.057 203.51 179.507C199.237 166.389 199.701 153.617 205.288 141.223H246Z" fill="#F2F2F2"/>
<path d="M231.048 161.613H222.757V184.336H231.048V161.613Z" fill="#CCCCCC"/>
<path d="M213.874 168.105V164.499H210.322V168.105H213.579H213.874Z" fill="#3F3D56"/>
<path d="M213.579 170.991H210.322V174.598H213.874V170.991H213.579Z" fill="#3F3D56"/>
<path d="M219.796 164.498H216.243V168.105H219.796V164.498Z" fill="#3F3D56"/>
<path d="M219.796 170.991H216.243V174.598H219.796V170.991Z" fill="#3F3D56"/>
<path d="M238.154 168.105V164.499H234.601V168.105H237.858H238.154Z" fill="#3F3D56"/>
<path d="M237.858 170.991H234.601V174.598H238.154V170.991H237.858Z" fill="#3F3D56"/>
<path d="M244.076 164.498H240.523V168.105H244.076V164.498Z" fill="#3F3D56"/>
<path d="M244.076 170.991H240.523V174.598H244.076V170.991Z" fill="#3F3D56"/>
<path d="M214.186 116.128H219.29C224.324 116.128 229.152 118.564 232.711 122.9C236.271 127.236 238.271 133.117 238.271 139.249H214.186V116.128Z" fill="#3F3D56"/>
<path d="M59.5989 53.356H64.7028C69.7367 53.356 74.5645 55.792 78.124 60.1282C81.6836 64.4643 83.6833 70.3454 83.6833 76.4777H59.5989V53.356Z" fill="#3F3D56"/>
<path d="M141.187 111.42H146.29C151.324 111.42 156.152 113.856 159.712 118.192C163.271 122.528 165.271 128.409 165.271 134.542H141.187V111.42Z" fill="#3F3D56"/>
<path d="M238.271 147.906H214.186V156.563H238.271V147.906Z" fill="#3F3D56"/>
<path d="M246 183.979H1.23682V185.025H246V183.979Z" fill="#3F3D56"/>
<path d="M23.8111 142.652H22.9523V183.976H23.8111V142.652Z" fill="#3F3D56"/>
<path d="M31.737 147.918C31.7917 162.368 23.4461 174.129 23.4461 174.129C23.4461 174.129 12.7584 162.212 14.9571 148.012C17.1684 133.731 24.0602 121.861 23.2481 121.801C23.2481 121.801 31.6824 133.468 31.737 147.918Z" fill="#2F80ED"/>
<path d="M109.693 142.652H108.834V183.976H109.693V142.652Z" fill="#3F3D56"/>
<path d="M117.619 147.918C118.393 162.338 109.328 174.129 109.328 174.129C109.328 174.129 100.894 162.462 100.839 148.012C100.784 133.562 109.13 121.801 109.13 121.801C108.316 125.762 116.992 136.251 117.619 147.918Z" fill="#2F80ED"/>
<path d="M53.8965 75.4773L91.201 73.2541L106.85 89.1662L104.083 92.2091L79.3025 91.5296L53.8965 75.4773Z" fill="#3F3D56"/>
<path d="M16.674 149.321L14.6643 151.534L14.4196 151.801L13.9086 152.366L1.2367 152.02V133.785C0.824468 133.675 0.412233 133.571 0 133.471L1.02629 133.408L1.2367 133.623L3.1991 135.616L8.78142 141.297L15.0164 147.637L16.674 149.321Z" fill="#3F3D56"/>
<path d="M135.484 135.634L172.789 133.41L188.438 149.322L185.671 152.365L160.89 151.686L135.484 135.634Z" fill="#3F3D56"/>
</g>
<defs>
<clipPath id="clip0_12_1074">
<rect width="246" height="189.02" fill="white"/>
</clipPath>
</defs>
</svg>
