<svg width="246" height="190" viewBox="0 0 246 190" fill="none" xmlns="http://www.w3.org/2000/svg">
<g clip-path="url(#clip0_12_816)">
<path d="M104.309 181.6C105.209 181.655 105.707 180.575 105.026 179.945L104.958 179.685C104.967 179.664 104.976 179.644 104.985 179.623C105.895 177.527 108.981 177.541 109.884 179.64C110.685 181.504 111.705 183.37 111.957 185.34C112.069 186.209 112.019 187.095 111.819 187.948C113.696 183.989 114.684 179.666 114.684 175.318C114.684 174.225 114.622 173.133 114.496 172.043C114.391 171.152 114.248 170.266 114.062 169.388C113.057 164.644 110.881 160.124 107.743 156.35C106.234 155.554 104.976 154.309 104.216 152.817C103.943 152.279 103.729 151.7 103.628 151.111C103.799 151.132 104.275 148.608 104.145 148.453C104.385 148.102 104.813 147.928 105.074 147.586C106.374 145.885 108.165 146.182 109.1 148.494C111.097 149.467 111.116 151.08 109.891 152.632C109.111 153.62 109.004 154.956 108.32 156.013C108.39 156.1 108.463 156.184 108.534 156.271C109.824 157.869 110.94 159.586 111.881 161.391C111.615 159.386 112.008 156.97 112.677 155.412C113.439 153.638 114.867 152.144 116.125 150.61C117.635 148.767 120.733 149.571 120.999 151.907C121.001 151.93 121.004 151.952 121.006 151.975C120.82 152.077 120.637 152.185 120.458 152.299C119.438 152.95 119.791 154.476 120.999 154.656L121.026 154.66C120.958 155.309 120.843 155.953 120.674 156.586C122.287 162.609 118.805 164.803 113.831 164.902C113.722 164.956 113.615 165.01 113.505 165.062C114.009 166.432 114.411 167.837 114.71 169.26C114.977 170.519 115.163 171.79 115.267 173.068C115.396 174.679 115.385 176.299 115.244 177.907L115.253 177.85C115.61 176.079 116.607 174.424 118.054 173.277C120.209 171.568 123.254 170.938 125.579 169.564C126.699 168.903 128.133 169.758 127.938 171.01L127.928 171.07C127.582 171.206 127.244 171.364 126.917 171.54C126.731 171.642 126.548 171.75 126.369 171.864C125.349 172.515 125.702 174.041 126.91 174.221L126.937 174.225C126.957 174.228 126.974 174.231 126.993 174.233C126.4 175.595 125.572 176.858 124.536 177.948C123.527 183.206 119.195 183.705 114.56 182.174H114.558C114.051 184.304 113.311 186.386 112.359 188.37H104.506C104.478 188.285 104.452 188.198 104.427 188.114C105.153 188.158 105.885 188.117 106.6 187.989C106.017 187.299 105.435 186.603 104.852 185.913C104.838 185.899 104.827 185.886 104.815 185.872C104.52 185.519 104.221 185.168 103.926 184.815L103.926 184.815C103.907 183.73 104.042 182.649 104.309 181.6Z" fill="#F2F2F2"/>
<path d="M0 188.519C0 188.797 0.230992 189.02 0.518639 189.02H176.276C176.564 189.02 176.795 188.797 176.795 188.519C176.795 188.242 176.564 188.019 176.276 188.019H0.518639C0.230992 188.019 0 188.242 0 188.519Z" fill="#CCCCCC"/>
<path d="M237.404 188.908H147.387C142.647 188.908 138.791 185.186 138.791 180.61V8.29876C138.791 3.7229 142.647 0 147.387 0H237.404C242.144 0 246 3.7229 246 8.29876V180.61C246 185.186 242.144 188.908 237.404 188.908ZM147.387 0.841463C143.121 0.841463 139.663 4.18012 139.663 8.29856V180.61C139.663 184.728 143.121 188.067 147.387 188.067H237.404C241.67 188.067 245.128 184.728 245.128 180.61V63.4063C245.128 28.8527 216.113 0.841463 180.321 0.841463H147.387Z" fill="#E6E6E6"/>
<path d="M164.358 85.0374C170.135 85.0374 174.818 80.5166 174.818 74.9399C174.818 69.3632 170.135 64.8423 164.358 64.8423C158.582 64.8423 153.899 69.3632 153.899 74.9399C153.899 80.5166 158.582 85.0374 164.358 85.0374Z" fill="#E6E6E6"/>
<path d="M220.432 85.0374C226.209 85.0374 230.892 80.5166 230.892 74.9399C230.892 69.3632 226.209 64.8423 220.432 64.8423C214.656 64.8423 209.973 69.3632 209.973 74.9399C209.973 80.5166 214.656 85.0374 220.432 85.0374Z" fill="#E6E6E6"/>
<path d="M192.395 85.0374C198.172 85.0374 202.855 80.5166 202.855 74.9399C202.855 69.3632 198.172 64.8423 192.395 64.8423C186.619 64.8423 181.936 69.3632 181.936 74.9399C181.936 80.5166 186.619 85.0374 192.395 85.0374Z" fill="#E6E6E6"/>
<path d="M164.358 114.068C170.135 114.068 174.818 109.547 174.818 103.97C174.818 98.3936 170.135 93.8728 164.358 93.8728C158.582 93.8728 153.899 98.3936 153.899 103.97C153.899 109.547 158.582 114.068 164.358 114.068Z" fill="#E6E6E6"/>
<path d="M220.432 114.068C226.209 114.068 230.892 109.547 230.892 103.97C230.892 98.3936 226.209 93.8728 220.432 93.8728C214.656 93.8728 209.973 98.3936 209.973 103.97C209.973 109.547 214.656 114.068 220.432 114.068Z" fill="#E6E6E6"/>
<path d="M192.395 114.068C198.172 114.068 202.855 109.547 202.855 103.97C202.855 98.3936 198.172 93.8728 192.395 93.8728C186.619 93.8728 181.936 98.3936 181.936 103.97C181.936 109.547 186.619 114.068 192.395 114.068Z" fill="#E6E6E6"/>
<path d="M164.358 143.098C170.135 143.098 174.818 138.578 174.818 133.001C174.818 127.424 170.135 122.903 164.358 122.903C158.582 122.903 153.899 127.424 153.899 133.001C153.899 138.578 158.582 143.098 164.358 143.098Z" fill="#E6E6E6"/>
<path d="M220.219 172.079C225.995 172.079 230.678 167.558 230.678 161.982C230.678 156.405 225.995 151.884 220.219 151.884C214.442 151.884 209.759 156.405 209.759 161.982C209.759 167.558 214.442 172.079 220.219 172.079Z" fill="#E6E6E6"/>
<path d="M178.599 172.079C192.198 172.079 203.222 167.558 203.222 161.982C203.222 156.405 192.198 151.884 178.599 151.884C165 151.884 153.976 156.405 153.976 161.982C153.976 167.558 165 172.079 178.599 172.079Z" fill="#E6E6E6"/>
<path d="M220.432 143.098C226.209 143.098 230.892 138.578 230.892 133.001C230.892 127.424 226.209 122.903 220.432 122.903C214.656 122.903 209.973 127.424 209.973 133.001C209.973 138.578 214.656 143.098 220.432 143.098Z" fill="#E6E6E6"/>
<path d="M192.395 143.098C198.172 143.098 202.855 138.578 202.855 133.001C202.855 127.424 198.172 122.903 192.395 122.903C186.619 122.903 181.936 127.424 181.936 133.001C181.936 138.578 186.619 143.098 192.395 143.098Z" fill="#2F80ED"/>
<path d="M194.451 11.7805H94.4181C91.452 11.7805 89.0401 14.1089 89.0401 16.9725V52.4482C89.0401 55.3117 91.452 57.6402 94.4181 57.6402H194.451C197.417 57.6402 199.829 55.3117 199.829 52.4482V16.9725C199.829 14.1089 197.417 11.7805 194.451 11.7805Z" fill="white"/>
<path d="M194.451 11.7805H94.4181C91.452 11.7805 89.0401 14.1089 89.0401 16.9725V52.4482C89.0401 55.3117 91.452 57.6402 94.4181 57.6402H194.451C197.417 57.6402 199.829 55.3117 199.829 52.4482V16.9725C199.829 14.1089 197.417 11.7805 194.451 11.7805ZM199.263 52.4482C199.263 55.0115 197.106 57.0943 194.451 57.0943H94.4181C91.763 57.0943 89.6056 55.0115 89.6056 52.4482V16.9725C89.6056 14.4092 91.763 12.3264 94.4181 12.3264H194.451C197.106 12.3264 199.263 14.4092 199.263 16.9725V52.4482Z" fill="#3F3D56"/>
<path d="M188.887 33.2378H99.982C99.1396 33.2378 98.4567 33.8971 98.4567 34.7103C98.4567 35.5236 99.1396 36.1829 99.982 36.1829H188.887C189.729 36.1829 190.412 35.5236 190.412 34.7103C190.412 33.8971 189.729 33.2378 188.887 33.2378Z" fill="#2F80ED"/>
<path d="M29.6141 75.9089L28.7231 81.0312L36.6246 99.587L40.864 97.4829L36.7378 80.1185L36.1447 73.4916L29.6141 75.9089Z" fill="#A0616A"/>
<path d="M38.3364 47.0919C38.3364 47.0919 34.1995 45.1572 30.9893 51.6942C27.7792 58.2312 28.1767 72.5685 28.1767 72.5685C28.1767 72.5685 27.0078 73.643 27.7498 74.3953C28.4918 75.1476 29.1836 76.3415 28.4266 77.7177C28.0277 78.4431 27.1044 79.8621 28.6164 80.2652C30.1283 80.6683 37.2009 78.764 37.2009 78.764C37.2009 78.764 39.8455 77.6202 38.3429 76.85C36.8402 76.0797 38.9565 71.4203 38.9565 71.4203L40.7052 57.9604L38.3364 47.0919Z" fill="#2F80ED"/>
<path d="M41.5847 106.677C43.2452 106.184 43.8952 103.596 43.0364 100.897C42.1776 98.1967 40.1353 96.4071 38.4748 96.8993C36.8142 97.3916 36.1643 99.9794 37.0231 102.679C37.8819 105.379 39.9242 107.169 41.5847 106.677Z" fill="#A0616A"/>
<path d="M80.7457 186.203L84.7056 185.177L82.4908 169.943L76.6464 171.457L80.7457 186.203Z" fill="#A0616A"/>
<path d="M94.2889 182.602C94.4679 182.77 94.7128 183.4 94.7776 183.634C94.9768 184.35 94.5365 185.087 93.7943 185.279L81.5307 188.456C81.0243 188.587 80.5036 188.297 80.3678 187.808L80.2308 187.316C80.2308 187.316 79.2123 185.991 79.9539 183.842C79.9539 183.842 81.9036 184.869 83.6008 182.029L83.9524 180.656L89.8756 182.869L92.7107 182.484C93.331 182.4 93.8405 182.18 94.2889 182.602Z" fill="#2F2E41"/>
<path d="M41.9297 186.115L46.0298 186.115L47.9802 170.847L41.9289 170.848L41.9297 186.115Z" fill="#A0616A"/>
<path d="M55.977 186.025C56.1047 186.233 56.1721 186.903 56.1721 187.144C56.1721 187.886 55.549 188.488 54.7805 188.488H42.0831C41.5588 188.488 41.1338 188.077 41.1338 187.571V187.061C41.1338 187.061 40.5056 185.527 41.7989 183.636C41.7989 183.636 43.4061 185.117 45.8078 182.798L46.5161 181.56L51.6427 185.179L54.4844 185.517C55.1061 185.591 55.6572 185.505 55.977 186.025Z" fill="#2F2E41"/>
<path d="M69.2164 95.1716L79.9977 140.035L85.2025 176.285L77.0235 177.362L54.3456 115.629L49.1408 177.362L39.8465 178.079C39.8465 178.079 32.4111 104.862 35.7571 95.8894L69.2164 95.1716Z" fill="#2F2E41"/>
<path d="M82.0494 42.1214L85.7693 38.3689L90.0412 18.7347L85.3099 18.1738L78.6097 34.7736L75.2409 40.5759L82.0494 42.1214Z" fill="#A0616A"/>
<path d="M58.0541 61.2186C58.0541 61.2186 61.5355 67.4157 67.9972 63.7521C74.4589 60.0884 81.2929 45.6641 81.2929 45.6641C81.2929 45.6641 82.6575 41.9973 84.0849 41.27C84.8372 40.8867 86.7731 40.4733 85.7575 39.3193C84.7418 38.1653 77.438 35.6424 77.438 35.6424C77.438 35.6424 74.5848 35.1528 75.3789 36.6054C76.173 38.0581 73.565 37.1582 73.8283 38.6955C74.0915 40.2329 71.7094 40.7627 71.7094 40.7627L58.0541 61.2186Z" fill="#2F80ED"/>
<path d="M91.5125 15.9612C92.3746 13.2623 91.7279 10.6738 90.068 10.1797C88.408 9.68548 86.3635 11.4728 85.5014 14.1717C84.6393 16.8706 85.286 19.4591 86.9459 19.9533C88.6059 20.4474 90.6504 18.6601 91.5125 15.9612Z" fill="#A0616A"/>
<path d="M58.5163 39.748H48.3374L47.9255 42.8463C47.9255 42.8463 35.0882 46.2544 35.4091 48.1134C35.7301 49.9724 37.6557 80.9554 37.6557 80.9554L36.051 96.4469C36.051 96.4469 64.935 108.22 69.4281 94.2781L67.1815 78.1669C67.1815 78.1669 72.6374 50.592 71.3537 49.3527C70.07 48.1134 59.4791 43.1561 59.4791 43.1561L58.5163 39.748Z" fill="#2F80ED"/>
<path d="M52.6038 39.7866C57.6496 39.7866 61.7401 35.8376 61.7401 30.9663C61.7401 26.0951 57.6496 22.1461 52.6038 22.1461C47.5579 22.1461 43.4675 26.0951 43.4675 30.9663C43.4675 35.8376 47.5579 39.7866 52.6038 39.7866Z" fill="#A0616A"/>
<path d="M59.37 27.3382C60.5374 27.2429 61.7047 27.1476 62.872 27.0524C62.4707 26.8747 62.0528 26.6846 61.7855 26.3454C61.5182 26.0063 61.4629 25.4704 61.7858 25.1799C62.1632 24.8403 62.7882 25.0202 63.2006 25.3193C62.9735 24.1745 62.2658 23.1256 61.2729 22.4625C60.06 21.6525 57.0594 22.6184 55.5972 22.4324C53.9101 22.2178 53.6995 20.8292 52.0124 20.6146C51.3765 20.5338 50.6608 20.4728 50.1608 20.8606C49.6062 21.2907 49.5439 22.1039 49.0546 22.6024C48.356 23.3142 47.1586 23.1042 46.1643 23.3045C44.7561 23.5882 43.6945 24.7803 43.2042 26.0859C42.7139 27.3916 42.6959 28.8117 42.6834 30.2005C42.6694 31.7569 42.6643 33.5587 43.8304 34.6336C44.5407 35.2885 46.4758 37.5355 46.685 38.462C46.8335 39.1201 52.8881 39.9215 54.2004 39.8851L58.6731 38.462C59.1127 36.5934 58.3855 32.8969 57.3404 31.2678C57.6846 31.7066 59.2762 33.0278 59.5195 32.53C59.7628 32.0322 59.6524 30.4719 59.9553 30.0056C60.3376 29.417 58.653 27.3967 59.37 27.3382Z" fill="#2F2E41"/>
</g>
<defs>
<clipPath id="clip0_12_816">
<rect width="246" height="189.02" fill="white"/>
</clipPath>
</defs>
</svg>
