<svg width="246" height="190" viewBox="0 0 246 190" fill="none" xmlns="http://www.w3.org/2000/svg">
<g clip-path="url(#clip0_12_776)">
<path d="M177.464 34.9959H159.447V6.58197L177.464 12.2648V34.9959Z" fill="#2F2E41"/>
<path d="M180.663 179.262L176.945 179.349L174.872 162.84L180.359 162.712L180.663 179.262Z" fill="#A0616A"/>
<path d="M167.906 186.929C167.906 187.549 168.352 188.053 168.902 188.053H176.282C176.282 188.053 177.009 185.167 179.97 183.926L180.174 188.053H183.981L183.52 181.417C183.52 181.417 184.539 177.867 182.423 176.052C180.308 174.237 182.021 174.49 182.021 174.49L181.189 170.383L175.436 171.051L175.394 177.498L172.602 183.898L168.507 185.897C168.142 186.075 167.906 186.48 167.906 186.929Z" fill="#2F2E41"/>
<path d="M161.607 179.262L157.889 179.349L155.816 162.84L161.303 162.712L161.607 179.262Z" fill="#A0616A"/>
<path d="M148.85 186.929C148.85 187.549 149.296 188.053 149.846 188.053H157.226C157.226 188.053 157.952 185.167 160.914 183.926L161.118 188.053H164.925L164.464 181.417C164.464 181.417 165.482 177.867 163.367 176.052C161.252 174.237 162.965 174.49 162.965 174.49L162.133 170.383L156.38 171.051L156.338 177.498L153.546 183.898L149.451 185.897C149.086 186.075 148.85 186.48 148.85 186.929Z" fill="#2F2E41"/>
<path d="M178.614 66.0619L154.847 80.0795L149.48 101.674L152.163 168.352H163.932L166.539 104.137L171.756 168.352H183.71L186.733 96.2405C187.566 90.9999 186.909 85.6337 184.835 80.7407L178.614 66.0619Z" fill="#2F2E41"/>
<path d="M173.248 23.2515L163.28 22.4938L160.597 27.7977L152.93 29.692L151.013 53.1809C154.805 62.9168 157.185 72.2206 154.847 80.0795L183.981 78.5641L179.117 65.5652C179.117 65.5652 178.998 60.758 181.681 54.3175C184.365 47.877 180.148 31.2074 180.148 31.2074L174.014 29.692L173.248 23.2515Z" fill="#2F80ED"/>
<path d="M106.136 32.3887C107.107 32.4184 108.004 32.229 108.709 31.8898L117.937 32.75L118.222 28.3988L108.831 27.9946C108.148 27.6129 107.265 27.369 106.295 27.3393C104.078 27.2714 102.245 28.3467 102.201 29.741C102.157 31.1354 103.919 32.3208 106.136 32.3887Z" fill="#A0616A"/>
<path d="M160.72 45.672C160.72 45.672 160.394 31.8104 157.318 29.7298C156.049 28.8718 136.541 28.6768 135.831 28.6041C131.448 28.1552 128.329 26.4356 124.639 26.2471C115.646 25.7878 111.1 27.9445 111.1 27.9445L110.941 32.3948L160.72 45.672Z" fill="#2F80ED"/>
<path d="M167.415 22.1347C171.81 22.1347 175.374 18.6132 175.374 14.2694C175.374 9.92551 171.81 6.40411 167.415 6.40411C163.02 6.40411 159.456 9.92551 159.456 14.2694C159.456 18.6132 163.02 22.1347 167.415 22.1347Z" fill="#A0616A"/>
<path d="M165.001 2.55754C163.289 3.62397 162.036 2.86046 160.813 3.3983C158.424 4.44913 154.391 11.8298 154.754 14.9198C155.269 19.296 156.897 19.4762 156.848 22.616C156.77 27.6577 156.365 27.6368 157.41 29.3972C158.572 31.3552 165.154 30.8236 166.375 28.1684C166.616 27.6446 163.939 27.8506 160.98 20.9784C159.496 17.5299 160.47 14.3875 160.98 13.0225C161.1 12.7029 161.154 10.434 161.409 10.6858C163.643 12.8937 164.896 11.2797 166.245 11.0945C169.013 10.7144 171.098 12.9217 171.938 12.1293C172.563 11.5396 171.766 9.98045 172.069 9.8657C172.392 9.74335 173.462 11.4538 174.163 13.2934C174.615 14.4798 174.841 15.0729 174.817 15.751C174.745 17.8451 174.205 23.7825 173.248 25.5246C171.18 29.2867 173.783 30.7063 175.406 30.432C176.718 30.2104 182.514 31.0828 182.831 30.4497C183.114 29.8857 182.468 24.0841 181.79 18.6905C180.975 12.2077 177.707 6.25044 172.582 2.12362C172.282 1.88161 172.058 1.71556 171.938 1.65211C171.654 1.50184 168.728 0.000193 166.572 1.1994C165.778 1.64087 165.907 1.99307 165.001 2.55754Z" fill="#2F2E41"/>
<path d="M65.5843 185.402L61.1686 185.402L59.068 168.57L65.5852 168.57L65.5843 185.402Z" fill="#FFB6B6"/>
<path d="M50.4555 185.303C50.318 185.532 50.2454 186.271 50.2454 186.537C50.2454 187.355 50.9164 188.018 51.7441 188.018H65.4192C65.9838 188.018 66.4416 187.566 66.4416 187.008V186.445C66.4416 186.445 67.1181 184.754 65.7253 182.67C65.7253 182.67 63.9943 184.302 61.4077 181.745L60.6449 180.38L55.1235 184.371L52.0631 184.743C51.3935 184.824 50.7999 184.73 50.4555 185.303Z" fill="#2F2E41"/>
<path d="M84.2018 185.402L79.7861 185.402L77.6855 168.57L84.2027 168.57L84.2018 185.402Z" fill="#FFB6B6"/>
<path d="M69.073 185.303C68.9355 185.532 68.8629 186.271 68.8629 186.537C68.8629 187.355 69.5339 188.018 70.3616 188.018H84.0366C84.6013 188.018 85.0591 187.566 85.0591 187.008V186.445C85.0591 186.445 85.7356 184.754 84.3428 182.67C84.3428 182.67 82.6118 184.302 80.0252 181.745L79.2624 180.38L73.741 184.371L70.6806 184.743C70.011 184.824 69.4174 184.73 69.073 185.303Z" fill="#2F2E41"/>
<path d="M85.0775 79.1302L52.6831 78.7623L49.332 99.7372L57.5237 172.229H68.2631L70.7421 104.705L75.2102 173.517H86.2063L91.2213 95.1374L85.0775 79.1302Z" fill="#2F2E41"/>
<path d="M222.412 182.511C223.181 182.559 223.606 181.615 223.024 181.064L222.966 180.837C222.974 180.818 222.982 180.8 222.989 180.782C223.767 178.949 226.404 178.961 227.175 180.797C227.86 182.427 228.731 184.059 228.946 185.782C229.042 186.543 228.999 187.317 228.828 188.064C230.432 184.601 231.276 180.819 231.276 177.017C231.276 176.061 231.223 175.106 231.115 174.153C231.026 173.373 230.904 172.598 230.745 171.83C229.886 167.681 228.027 163.728 225.346 160.427C224.057 159.731 222.982 158.642 222.332 157.337C222.099 156.867 221.916 156.36 221.83 155.845C221.976 155.864 222.383 153.656 222.272 153.52C222.477 153.214 222.843 153.061 223.066 152.762C224.176 151.274 225.706 151.534 226.505 153.556C228.211 154.407 228.228 155.818 227.181 157.176C226.515 158.039 226.423 159.208 225.839 160.132C225.899 160.208 225.961 160.282 226.022 160.358C227.124 161.756 228.078 163.258 228.882 164.836C228.654 163.082 228.99 160.969 229.562 159.607C230.213 158.055 231.433 156.748 232.507 155.406C233.798 153.795 236.444 154.498 236.671 156.541C236.674 156.561 236.676 156.581 236.678 156.6C236.518 156.689 236.362 156.784 236.209 156.884C235.338 157.453 235.639 158.788 236.671 158.945L236.695 158.949C236.637 159.517 236.538 160.08 236.394 160.634C237.773 165.902 234.797 167.82 230.548 167.907C230.454 167.954 230.363 168.002 230.269 168.047C230.699 169.245 231.043 170.473 231.298 171.719C231.527 172.819 231.685 173.932 231.774 175.049C231.885 176.458 231.875 177.875 231.755 179.282L231.762 179.232C232.068 177.682 232.919 176.235 234.155 175.232C235.997 173.737 238.598 173.186 240.585 171.984C241.541 171.406 242.767 172.154 242.6 173.249L242.592 173.302C242.296 173.421 242.007 173.558 241.728 173.713C241.569 173.802 241.412 173.896 241.26 173.996C240.389 174.566 240.69 175.9 241.722 176.058L241.745 176.061C241.762 176.063 241.776 176.066 241.793 176.068C241.286 177.259 240.579 178.364 239.694 179.317C238.832 183.916 235.13 184.352 231.171 183.013H231.168C230.735 184.876 230.103 186.697 229.29 188.432H222.58C222.556 188.358 222.534 188.282 222.513 188.209C223.133 188.247 223.758 188.211 224.369 188.099C223.872 187.496 223.374 186.887 222.876 186.283C222.864 186.272 222.854 186.26 222.845 186.248C222.592 185.939 222.337 185.632 222.085 185.323L222.084 185.323C222.069 184.374 222.184 183.429 222.412 182.511Z" fill="#F2F2F2"/>
<path d="M0 188.582C0 188.825 0.197356 189.02 0.443118 189.02H245.557C245.803 189.02 246 188.825 246 188.582C246 188.339 245.803 188.144 245.557 188.144H0.443118C0.197356 188.144 0 188.339 0 188.582Z" fill="#CCCCCC"/>
<path d="M74.0932 24.1171H62.5636L60.3163 28.5329L49.332 33.518L53.2416 62.0191L50.2628 80.7862H87.4729L84.1466 59.0753L88.6148 32.9486L76.3273 28.1649L74.0932 24.1171Z" fill="#E6E6E6"/>
<path d="M112.686 93.1806C112.184 92.1668 111.954 91.1247 111.98 90.2128L106.572 80.8533L111.154 78.4406L116.146 88.1947C116.892 88.733 117.585 89.5506 118.087 90.5644C119.236 92.8806 118.958 95.3439 117.467 96.0664C115.975 96.7888 113.835 95.4968 112.686 93.1806Z" fill="#FFB6B6"/>
<path d="M77.0422 31.6927C77.0422 31.6927 80.6902 27.9833 84.7825 30.5646C88.8748 33.1459 103.803 59.561 103.803 59.561L115.319 82.27L107.191 86.0124L97.384 64.2667L76.7893 42.3639L77.0422 31.6927Z" fill="#E6E6E6"/>
<path d="M67.8401 21.9647C73.59 21.9647 78.2512 17.3582 78.2512 11.6757C78.2512 5.99331 73.59 1.3868 67.8401 1.3868C62.0902 1.3868 57.429 5.99331 57.429 11.6757C57.429 17.3582 62.0902 21.9647 67.8401 21.9647Z" fill="#FFB6B6"/>
<path d="M64.5728 19.9564C64.621 20.9644 64.6451 21.4684 64.4884 21.5293C64.0167 21.7127 57.9427 18.1676 57.2275 15.8077C56.8939 14.707 57.1756 14.6851 56.9321 11.5537C56.6992 8.55883 56.4381 8.53496 56.7468 7.79401C57.0899 6.97046 58.1376 5.9558 60.233 3.92647C61.0253 3.15917 61.4215 2.77552 61.6715 2.57716C62.4295 1.97597 65.253 -0.263683 67.8421 0.025671C68.9273 0.146961 68.7419 0.575173 72.7961 2.74797C73.1453 2.93512 73.6136 3.18216 74.2603 3.46581C75.8332 4.15567 76.809 4.33452 77.3227 4.5269C80.4359 5.69283 79.5222 12.1876 79.2547 12.2248C79.1572 12.2384 79.1307 11.3962 78.6199 11.3266C78.16 11.2639 77.8672 11.9034 77.4492 11.9267C76.3079 11.9903 77.5754 10.9105 74.7819 9.71119C73.696 9.24497 76.7176 11.3471 73.8411 11.313C69.3428 11.2596 72.2197 11.5425 70.5114 12.4294C69.2655 13.0761 64.2536 9.51683 64.4573 10.6542C64.6009 11.4564 65.1899 11.6873 65.105 12.586C65.0227 13.4567 64.3606 14.3951 63.7765 14.4296C63.2383 14.4614 62.9433 13.7148 62.7637 13.7863C62.5684 13.864 62.7829 14.8008 63.2041 15.7632C63.7387 16.985 64.0578 16.9946 64.3398 17.9343C64.502 18.4748 64.5256 18.9687 64.5728 19.9564Z" fill="#2F2E41"/>
<path d="M146.629 90.1595L79.5475 73.2924C75.2593 72.2142 72.6583 67.8892 73.7493 63.6514L82.0946 31.2356C83.1856 26.9977 87.562 24.4272 91.8501 25.5054L158.932 42.3725C163.22 43.4507 165.821 47.7757 164.73 52.0135L156.385 84.4293C155.294 88.6671 150.917 91.2377 146.629 90.1595Z" fill="white"/>
<path d="M146.629 90.1595L79.5475 73.2924C77.4034 72.7533 75.6811 71.4025 74.4508 69.6114C72.6607 67.0054 72.1936 63.7245 72.9794 60.672L79.9776 33.4891C80.7634 30.4366 82.7604 27.7752 85.593 26.3316C87.5399 25.3394 89.706 24.9663 91.8501 25.5054L158.932 42.3725C163.227 43.4525 165.823 47.7689 164.73 52.0135L156.385 84.4293C155.294 88.6671 150.917 91.2377 146.629 90.1595ZM91.6665 26.2186C87.77 25.2389 88.7884 28.7264 87.797 32.5771C82.9604 51.3642 92.9642 70.7873 111.184 77.9705C121.019 81.848 129.199 85.0175 129.199 85.0175C142.823 88.4432 156.678 80.3052 160.144 66.8409L164.008 51.8321C165 47.9813 162.645 44.0655 158.748 43.0857L91.6665 26.2186Z" fill="#3F3D56"/>
<path d="M123.054 51.7633C122.586 47.9655 119.092 45.2614 115.249 45.7234C111.443 46.181 108.724 49.5735 109.127 53.3284L109.016 53.3418L110.708 67.0946L123.514 65.5551C123.918 65.5768 124.33 65.566 124.746 65.516C128.589 65.054 131.325 61.6009 130.858 57.8031C130.39 54.0054 126.896 51.3013 123.054 51.7633Z" fill="#2F80ED"/>
<path d="M98.5086 181.68C97.9662 180.299 96.3937 179.614 94.9962 180.15C93.6119 180.681 92.9194 182.211 93.4334 183.582L93.3929 183.597L95.3569 188.599L100.014 186.813C100.168 186.783 100.321 186.74 100.473 186.682C101.87 186.146 102.563 184.592 102.021 183.211C101.479 181.83 99.9061 181.144 98.5086 181.68Z" fill="#E6E6E6"/>
<path d="M202.766 181.68C202.224 180.299 200.651 179.614 199.254 180.15C197.87 180.681 197.177 182.211 197.691 183.582L197.651 183.597L199.615 188.599L204.272 186.813C204.426 186.783 204.579 186.74 204.73 186.682C206.128 186.146 206.821 184.592 206.279 183.211C205.736 181.83 204.164 181.144 202.766 181.68Z" fill="#E6E6E6"/>
<path d="M117.555 91.4013C122.49 91.4013 126.491 87.4473 126.491 82.5697C126.491 77.6922 122.49 73.7382 117.555 73.7382C112.62 73.7382 108.619 77.6922 108.619 82.5697C108.619 87.4473 112.62 91.4013 117.555 91.4013Z" fill="#2F80ED"/>
<path d="M76.9315 46.7531C75.9726 47.367 74.9529 47.716 74.0337 47.7989L65.2729 54.2176L62.3043 50.0085L71.5109 43.9505C71.9631 43.1552 72.7022 42.3782 73.6611 41.7642C75.8516 40.3617 78.3595 40.3415 79.2626 41.7192C80.1657 43.0968 79.1221 45.3505 76.9315 46.7531Z" fill="#FFB6B6"/>
<path d="M56.4123 31.7746C56.4123 31.7746 49.71 31.0386 48.593 33.6145C47.4759 36.1904 45.2418 61.949 45.2418 61.949L48.9653 68.2047L73.3835 49.941L68.4386 45.0541L57.9735 49.941L56.4123 31.7746Z" fill="#E6E6E6"/>
<path d="M153.489 40.098C154.285 40.9075 155.201 41.4722 156.078 41.7553L163.173 49.941L167.015 46.4909L159.405 38.5588C159.143 37.684 158.598 36.7638 157.801 35.9542C155.982 34.1048 153.542 33.5332 152.351 34.6774C151.16 35.8217 151.669 38.2485 153.489 40.098Z" fill="#A0616A"/>
<path d="M176.868 30.0117C176.868 30.0117 183.568 30.7693 184.077 33.5264C184.585 36.2834 180.958 61.8869 180.958 61.8869L175.919 67.1659L156.229 43.9867L162.151 40.3108L171.252 47.3783L176.868 30.0117Z" fill="#2F80ED"/>
<path d="M86.531 59.739C89.6165 59.739 92.1179 57.267 92.1179 54.2176C92.1179 51.1683 89.6165 48.6963 86.531 48.6963C83.4454 48.6963 80.9441 51.1683 80.9441 54.2176C80.9441 57.267 83.4454 59.739 86.531 59.739Z" fill="#E6E6E6"/>
</g>
<defs>
<clipPath id="clip0_12_776">
<rect width="246" height="189.02" fill="white"/>
</clipPath>
</defs>
</svg>
